<svg version="1.1" id="Layer_1" xmlns="http://www.w3.org/2000/svg" xmlns:xlink="http://www.w3.org/1999/xlink" x="0px" y="0px" width="496px" height="130px" viewBox="0 0 496 130" enable-background="new 0 0 496 130" xml:space="preserve"> <g> <path d="M92.066,56.639c0,6.689-1.153,12.714-3.459,18.077c-2.307,5.361-5.497,9.908-9.572,13.637 c-4.074,3.728-8.898,6.591-14.472,8.59c-5.574,1.998-11.609,2.999-18.104,2.999c-6.496,0-12.531-1.001-18.104-2.999 c-5.573-1.999-10.398-4.862-14.472-8.59c-4.074-3.729-7.265-8.275-9.57-13.637c-2.307-5.362-3.46-11.388-3.46-18.077 c0-6.803,1.144-12.885,3.431-18.248c2.287-5.362,5.458-9.897,9.513-13.607c4.055-3.709,8.869-6.554,14.443-8.533 c5.574-1.979,11.647-2.969,18.22-2.969c6.573,0,12.646,0.99,18.22,2.969s10.387,4.824,14.443,8.533 c4.055,3.71,7.226,8.245,9.514,13.607C90.922,43.754,92.066,49.836,92.066,56.639z M68.772,56.639c0-2.536-0.115-5.131-0.346-7.783 c-0.23-2.653-0.653-5.227-1.268-7.726c-0.615-2.499-1.452-4.843-2.508-7.035c-1.058-2.19-2.413-4.103-4.065-5.737 c-1.654-1.633-3.643-2.921-5.968-3.863c-2.326-0.941-5.045-1.413-8.159-1.413c-3.152,0-5.9,0.472-8.245,1.413 c-2.345,0.942-4.344,2.22-5.997,3.833c-1.653,1.616-2.998,3.517-4.036,5.709c-1.038,2.19-1.854,4.526-2.45,7.005 c-0.596,2.48-1.009,5.055-1.24,7.727c-0.23,2.671-0.346,5.295-0.346,7.869c0,2.537,0.115,5.132,0.346,7.785 c0.23,2.652,0.653,5.219,1.269,7.697c0.614,2.479,1.45,4.814,2.508,7.005c1.056,2.19,2.412,4.104,4.064,5.737 c1.652,1.634,3.642,2.932,5.967,3.892c2.326,0.962,5.045,1.442,8.159,1.442c3.037,0,5.688-0.49,7.957-1.471 s4.228-2.307,5.882-3.979c1.652-1.672,3.026-3.612,4.122-5.823c1.095-2.21,1.96-4.555,2.594-7.034 c0.635-2.479,1.086-5.025,1.355-7.64C68.638,61.637,68.772,59.1,68.772,56.639z"/> <path d="M174.977,64.828c0,4.844-0.73,9.378-2.191,13.607c-1.46,4.229-3.574,7.908-6.342,11.042 c-2.767,3.133-6.15,5.602-10.147,7.407c-3.998,1.808-8.534,2.711-13.607,2.711c-3.882,0-7.448-0.759-10.695-2.277 c-3.249-1.519-6.025-3.854-8.332-7.005V129h-19.488V31.674h7.495l8.649,14.472c0.845-2.421,2.008-4.622,3.488-6.601 c1.48-1.979,3.19-3.671,5.131-5.074c1.941-1.402,4.074-2.489,6.4-3.257c2.325-0.769,4.775-1.153,7.351-1.153 c5.074,0,9.609,0.903,13.607,2.709c3.997,1.807,7.38,4.277,10.147,7.409c2.768,3.134,4.881,6.813,6.342,11.042 C174.247,55.449,174.977,59.984,174.977,64.828z M155.201,64.828c0-1.691-0.087-3.489-0.26-5.392 c-0.173-1.902-0.471-3.795-0.893-5.68c-0.423-1.883-1.009-3.689-1.759-5.419c-0.75-1.729-1.701-3.257-2.854-4.583 c-1.153-1.327-2.546-2.383-4.18-3.172c-1.634-0.787-3.527-1.181-5.679-1.181c-2.23,0-4.161,0.384-5.794,1.152 c-1.634,0.77-3.037,1.817-4.209,3.142c-1.172,1.327-2.133,2.846-2.883,4.555c-0.75,1.711-1.335,3.509-1.758,5.392 c-0.423,1.884-0.721,3.786-0.894,5.708c-0.173,1.922-0.259,3.748-0.259,5.478c0,1.538,0.115,3.238,0.346,5.102 c0.23,1.865,0.596,3.739,1.095,5.622c0.5,1.883,1.153,3.71,1.96,5.477c0.808,1.77,1.797,3.346,2.969,4.729 c1.172,1.384,2.537,2.489,4.094,3.315c1.557,0.827,3.334,1.24,5.333,1.24c2.191,0,4.094-0.395,5.708-1.183 c1.615-0.787,2.999-1.845,4.151-3.171c1.153-1.325,2.105-2.854,2.854-4.584s1.335-3.536,1.759-5.42 c0.422-1.883,0.72-3.785,0.893-5.708C155.114,68.325,155.201,66.52,155.201,64.828z"/> <path d="M211.186,98.27H191.64V39.401h-12.108v-7.727h12.108V7.17h19.545v24.504h20.18v7.727h-20.18V98.27z"/> <path d="M260.887,15.588c0,1.461-0.279,2.844-0.837,4.151c-0.558,1.307-1.316,2.44-2.276,3.401 c-0.962,0.961-2.096,1.72-3.402,2.278c-1.308,0.557-2.69,0.836-4.152,0.836c-1.46,0-2.834-0.279-4.122-0.836 c-1.288-0.558-2.413-1.317-3.373-2.278c-0.961-0.961-1.721-2.095-2.277-3.401c-0.558-1.307-0.836-2.69-0.836-4.151 s0.278-2.835,0.836-4.123c0.557-1.289,1.316-2.413,2.277-3.373c0.96-0.96,2.085-1.721,3.373-2.277 c1.287-0.558,2.662-0.837,4.122-0.837c1.462,0,2.845,0.279,4.152,0.837c1.307,0.557,2.44,1.317,3.402,2.277 c0.96,0.96,1.719,2.084,2.276,3.373C260.607,12.753,260.887,14.127,260.887,15.588z M260.021,98.27h-19.546V31.732h19.546V98.27z"/> <path d="M379.371,59.407c0,4.575-0.537,9.341-1.613,14.299c-1.076,4.959-2.586,9.793-4.526,14.501 c-1.941,4.709-4.276,9.159-7.005,13.348c-2.73,4.189-5.767,7.822-9.109,10.897l-7.323-3.979c1.114-1.998,2.134-4.248,3.056-6.746 s1.768-5.132,2.537-7.899c0.769-2.767,1.441-5.611,2.018-8.533c0.577-2.92,1.066-5.832,1.47-8.734 c0.404-2.901,0.701-5.718,0.895-8.446c0.192-2.73,0.287-5.286,0.287-7.669c0-1.346-0.038-2.806-0.114-4.382 c-0.077-1.576-0.24-3.151-0.49-4.728c-0.251-1.576-0.624-3.085-1.124-4.527c-0.5-1.441-1.182-2.729-2.046-3.862 c-0.865-1.134-1.941-2.037-3.229-2.71c-1.288-0.671-2.835-1.008-4.643-1.008c-1.767,0-3.276,0.471-4.525,1.412 c-1.249,0.942-2.315,2.163-3.199,3.661c-0.885,1.5-1.587,3.191-2.105,5.074c-0.519,1.883-0.913,3.776-1.182,5.68 c-0.27,1.903-0.452,3.719-0.548,5.448c-0.097,1.73-0.144,3.191-0.144,4.382V98.27h-19.432V67.249c0-1.345,0.02-2.969,0.059-4.873 c0.038-1.902-0.01-3.891-0.144-5.967c-0.136-2.076-0.386-4.142-0.751-6.199c-0.364-2.056-0.941-3.892-1.729-5.506 c-0.788-1.614-1.854-2.93-3.199-3.949c-1.347-1.019-3.037-1.528-5.073-1.528c-1.73,0-3.182,0.481-4.354,1.441 c-1.174,0.961-2.152,2.2-2.941,3.719c-0.788,1.519-1.403,3.229-1.845,5.131c-0.443,1.903-0.769,3.805-0.98,5.708 s-0.337,3.71-0.374,5.42c-0.039,1.711-0.059,3.123-0.059,4.238V98.27h-19.545V31.674h7.494l7.15,15.51 c1.614-5.382,4.16-9.581,7.639-12.598c3.479-3.018,8.102-4.526,13.868-4.526c5.188,0,9.493,1.076,12.915,3.228 c3.421,2.154,6.111,5.651,8.071,10.494c1.115-2.114,2.354-4.017,3.719-5.708c1.365-1.691,2.884-3.133,4.556-4.324 c1.671-1.192,3.526-2.105,5.563-2.74c2.037-0.634,4.285-0.951,6.745-0.951c4.535,0,8.409,0.74,11.618,2.22 c3.21,1.479,5.834,3.527,7.872,6.14c2.035,2.615,3.515,5.717,4.438,9.312C378.911,51.327,379.371,55.218,379.371,59.407z"/> <path d="M459.4,98.27h-19.488v-7.957c-2.307,3.15-5.084,5.486-8.331,7.005c-3.249,1.519-6.813,2.277-10.696,2.277 c-5.074,0-9.609-0.903-13.606-2.711c-3.998-1.806-7.38-4.274-10.148-7.407c-2.768-3.134-4.881-6.813-6.342-11.042 s-2.19-8.763-2.19-13.607c0-4.844,0.729-9.379,2.19-13.607s3.574-7.908,6.342-11.042c2.769-3.132,6.15-5.602,10.148-7.409 c3.997-1.807,8.532-2.709,13.606-2.709c2.575,0,5.026,0.384,7.352,1.153c2.325,0.769,4.459,1.855,6.399,3.257 c1.941,1.403,3.652,3.095,5.133,5.074c1.479,1.979,2.642,4.18,3.487,6.601l8.648-14.472h7.496V98.27z M439.797,64.828 c0-1.73-0.087-3.556-0.259-5.478c-0.174-1.922-0.472-3.824-0.895-5.708c-0.423-1.883-1.009-3.681-1.759-5.392 c-0.749-1.709-1.711-3.228-2.883-4.555c-1.173-1.325-2.586-2.373-4.237-3.142c-1.653-0.768-3.575-1.152-5.767-1.152 c-2.19,0-4.093,0.394-5.707,1.181c-1.615,0.789-2.999,1.845-4.152,3.172c-1.152,1.326-2.104,2.854-2.854,4.583 c-0.75,1.73-1.336,3.537-1.758,5.419c-0.424,1.884-0.721,3.777-0.895,5.68c-0.174,1.903-0.259,3.7-0.259,5.392 c0,1.692,0.085,3.498,0.259,5.419c0.174,1.923,0.471,3.825,0.895,5.708c0.422,1.884,1.008,3.69,1.758,5.42s1.701,3.259,2.854,4.584 c1.153,1.326,2.537,2.384,4.152,3.171c1.614,0.788,3.517,1.183,5.707,1.183c1.998,0,3.776-0.413,5.334-1.24 c1.557-0.826,2.92-1.932,4.093-3.315c1.173-1.383,2.163-2.959,2.971-4.729c0.807-1.767,1.461-3.594,1.96-5.477 c0.5-1.883,0.864-3.757,1.096-5.622C439.682,68.065,439.797,66.365,439.797,64.828z"/> <path d="M495.147,98.27H475.66V1h7.495l11.992,20.238V98.27z"/> </g> </svg>